<svg width="512" height="512" viewBox="0 0 512 512" xmlns="http://www.w3.org/2000/svg">
  <!-- Background -->
  <rect width="512" height="512" fill="#FFD700" rx="64"/>

  <!-- Rat silhouette -->
  <!-- Body -->
  <ellipse cx="256" cy="300" rx="120" ry="90" fill="#8B4513"/>

  <!-- Head -->
  <circle cx="256" cy="200" r="70" fill="#8B4513"/>

  <!-- Ears -->
  <circle cx="220" cy="170" r="25" fill="#8B4513"/>
  <circle cx="292" cy="170" r="25" fill="#8B4513"/>
  <circle cx="220" cy="170" r="15" fill="#FFB6C1"/>
  <circle cx="292" cy="170" r="15" fill="#FFB6C1"/>

  <!-- Eyes -->
  <circle cx="235" cy="195" r="12" fill="#000000"/>
  <circle cx="277" cy="195" r="12" fill="#000000"/>
  <circle cx="237" cy="192" r="4" fill="#FFFFFF"/>
  <circle cx="279" cy="192" r="4" fill="#FFFFFF"/>

  <!-- Nose -->
  <circle cx="256" cy="220" r="8" fill="#FF69B4"/>

  <!-- Whiskers -->
  <line x1="200" y1="210" x2="160" y2="200" stroke="#000000" stroke-width="3"/>
  <line x1="200" y1="220" x2="160" y2="220" stroke="#000000" stroke-width="3"/>
  <line x1="312" y1="210" x2="352" y2="200" stroke="#000000" stroke-width="3"/>
  <line x1="312" y1="220" x2="352" y2="220" stroke="#000000" stroke-width="3"/>

  <!-- Racing stripes -->
  <rect x="180" y="280" width="152" height="15" fill="#FF0000" rx="7"/>
  <rect x="180" y="305" width="152" height="15" fill="#FFFFFF" rx="7"/>

  <!-- Tail -->
  <path d="M 140 320 Q 100 340, 90 380 Q 85 400, 95 410" stroke="#8B4513" stroke-width="20" fill="none" stroke-linecap="round"/>

  <!-- Text -->
  <text x="256" y="440" text-anchor="middle" font-family="Arial Black" font-size="72" fill="#000000" stroke="#FFFFFF" stroke-width="4">RACE</text>
</svg>