<?xml version="1.0" encoding="UTF-8"?>
<svg width="200" height="200" xmlns="http://www.w3.org/2000/svg">
  <!-- Crate obstacle -->
  <g id="crate" transform="translate(0,0)">
    <rect x="5" y="5" width="40" height="40" fill="#8B4513" stroke="#654321" stroke-width="2"/>
    <line x1="5" y1="25" x2="45" y2="25" stroke="#654321" stroke-width="1"/>
    <line x1="25" y1="5" x2="25" y2="45" stroke="#654321" stroke-width="1"/>
  </g>
  
  <!-- Traffic cone -->
  <g id="cone" transform="translate(60,0)">
    <polygon points="25,5 15,45 35,45" fill="#FF6600" stroke="#CC4400" stroke-width="2"/>
    <rect x="22" y="15" width="6" height="5" fill="#FFFFFF"/>
    <rect x="22" y="25" width="6" height="5" fill="#FFFFFF"/>
  </g>
  
  <!-- Rock/Boulder -->
  <g id="rock" transform="translate(120,0)">
    <ellipse cx="25" cy="25" rx="20" ry="18" fill="#696969" stroke="#404040" stroke-width="2"/>
    <ellipse cx="20" cy="20" rx="8" ry="6" fill="#808080" opacity="0.5"/>
  </g>
  
  <!-- Puddle -->
  <g id="puddle" transform="translate(0,60)">
    <ellipse cx="25" cy="25" rx="22" ry="12" fill="#4682B4" opacity="0.7"/>
    <ellipse cx="22" cy="23" rx="15" ry="8" fill="#87CEEB" opacity="0.5"/>
  </g>
  
  <!-- Garden hose -->
  <g id="hose" transform="translate(60,60)">
    <path d="M 10,25 Q 25,15 40,25" stroke="#228B22" stroke-width="6" fill="none" stroke-linecap="round"/>
    <circle cx="10" cy="25" r="4" fill="#666666"/>
    <circle cx="40" cy="25" r="4" fill="#666666"/>
  </g>
  
  <!-- Toy block -->
  <g id="toy" transform="translate(120,60)">
    <rect x="10" y="10" width="30" height="30" rx="3" fill="#FF0000" stroke="#CC0000" stroke-width="2"/>
    <circle cx="20" cy="20" r="3" fill="#FFFF00"/>
    <circle cx="30" cy="20" r="3" fill="#FFFF00"/>
    <circle cx="20" cy="30" r="3" fill="#FFFF00"/>
    <circle cx="30" cy="30" r="3" fill="#FFFF00"/>
  </g>
</svg>